<?xml version="1.0" encoding="utf-8"?>
<!-- Generator: Adobe Illustrator 23.0.2, SVG Export Plug-In . SVG Version: 6.00 Build 0)  -->
<svg version="1.1" id="圖層_1" xmlns="http://www.w3.org/2000/svg" xmlns:xlink="http://www.w3.org/1999/xlink" x="0px" y="0px"
	 viewBox="0 0 16.4 16.4" style="enable-background:new 0 0 16.4 16.4;" xml:space="preserve">
<style type="text/css">
	.st0{fill:#FFFFFF;}
</style>
<g>
	<path class="st0" d="M8.2,0.5c4.3,0,7.7,3.5,7.7,7.7c0,4.3-3.5,7.7-7.7,7.7c-4.3,0-7.7-3.5-7.7-7.7C0.5,4,4,0.5,8.2,0.5 M8.2,0
		C3.7,0,0,3.7,0,8.2c0,4.5,3.7,8.2,8.2,8.2c4.5,0,8.2-3.7,8.2-8.2C16.4,3.7,12.7,0,8.2,0L8.2,0z"/>
	<path class="st0" d="M12.8,5.1c-1,0-2.8-0.6-3.1-2.4C9.4,1.1,8.4,1,8.2,1C8,1,7,1.1,6.7,2.7C6.4,4.5,4.6,5.1,3.6,5.1
		c-1,0-2.3,0-2.3,1.2c0,1.2,1.6,1.5,2.1,2.5c0.5,1,0.8,2,0.2,3.3c-0.5,1.3,0.2,1.8,0.4,1.9c0.2,0.2,0.9,0.5,2-0.4
		c0.9-0.8,1.9-0.8,2.1-0.8v0c0,0,0,0,0,0c0,0,0,0,0,0v0c0.2,0,1.2,0,2.1,0.8c1.1,1,1.8,0.6,2,0.4c0.2-0.2,0.9-0.6,0.4-1.9
		c-0.5-1.3-0.3-2.4,0.2-3.3c0.5-1,2.1-1.3,2.1-2.5C15.1,5.1,13.8,5.1,12.8,5.1z M12.9,7.9c0,0-3.8,0.3-3.8,4l0,0
		c-0.1,0.3-0.3,0.6-0.6,0.7c0,0,0,0,0,0c0,0-0.1,0-0.1,0c0,0-0.1,0-0.1,0c0,0,0,0-0.1,0h0h0c0,0,0,0-0.1,0c0,0-0.1,0-0.1,0
		c0,0-0.1,0-0.1,0c0,0,0,0,0,0c-0.3-0.1-0.5-0.4-0.6-0.7l0,0c0-3.7-3.8-4-3.8-4c-0.5,0-1-0.4-1-1c0-0.5,0.4-1,1-1
		c3.3,0,3.8-3.8,3.8-3.8h0c0-0.4,0.4-0.8,0.8-0.8c0,0,0,0,0,0c0,0,0.1,0,0.1,0l0,0l0,0c0,0,0.1,0,0.1,0c0,0,0,0,0,0
		c0.4,0.1,0.7,0.4,0.8,0.8h0c0,0,0.5,3.8,3.8,3.8c0.5,0,1,0.4,1,1C13.9,7.5,13.5,7.9,12.9,7.9z"/>
	<path class="st0" d="M6.5,5.5C6.1,5.9,5.9,6.4,5.9,7c0,0.6,0.2,1.1,0.5,1.5H10c0.3-0.4,0.5-0.9,0.5-1.5c0-0.6-0.2-1.1-0.6-1.5H6.5z
		"/>
</g>
</svg>
